<?xml version="1.0" standalone="no"?>
<!DOCTYPE svg PUBLIC "-//W3C//DTD SVG 20010904//EN"
        "http://www.w3.org/TR/2001/REC-SVG-20010904/DTD/svg10.dtd">
<svg version="1.0" xmlns="http://www.w3.org/2000/svg"
     width="512.000000pt" height="512.000000pt" viewBox="0 0 512.000000 512.000000"
     preserveAspectRatio="xMidYMid meet">

    <g transform="translate(0.000000,512.000000) scale(0.100000,-0.100000)"
       fill="#000000" stroke="none">
        <path d="M2185 4334 c-49 -19 -250 -89 -445 -154 l-355 -120 2 -32 c13 -235
15 -248 31 -248 27 0 379 68 597 116 116 25 234 50 263 56 30 6 56 17 58 23 3
7 -4 96 -15 198 -12 102 -21 188 -21 191 0 11 -25 4 -115 -30z"/>
        <path d="M1061 3428 c0 -35 10 -436 23 -891 l22 -829 -22 -451 c-13 -249 -23
-467 -23 -484 l-1 -33 730 0 c402 0 730 1 731 3 0 1 11 95 23 210 l22 207
-482 0 -482 0 -6 73 c-10 125 -28 600 -24 652 l3 50 386 3 386 2 17 168 c9 92
19 186 22 210 l6 42 -402 0 -401 0 6 163 c4 89 10 248 14 352 l6 190 450 3
451 2 17 183 c10 100 20 194 23 210 l6 27 -751 0 -751 0 1 -62z"/>
        <path d="M3390 3165 c-118 -23 -232 -45 -252 -49 l-38 -7 -2 -217 -3 -217
-117 -3 c-65 -1 -118 -7 -118 -11 0 -5 -9 -76 -20 -157 -11 -82 -20 -152 -20
-156 0 -5 64 -8 141 -8 l141 0 -6 -417 c-3 -230 -9 -491 -12 -581 -7 -187 2
-253 49 -352 39 -83 131 -176 212 -216 56 -27 68 -29 180 -29 109 0 126 3 185
29 67 29 246 143 270 171 11 14 12 40 2 152 -6 75 -13 137 -14 139 -2 1 -39
-6 -83 -17 -109 -26 -219 -25 -263 1 -67 41 -67 42 -65 555 1 253 5 484 8 513
l6 52 225 0 c123 0 224 1 225 3 0 1 10 75 23 165 l22 162 -243 0 -243 0 5 38
c8 58 45 444 45 475 0 15 -5 27 -12 26 -7 -1 -110 -20 -228 -44z"/>
    </g>
</svg>
